<?xml version="1.0" encoding="UTF-8" standalone="no"?>
<!-- Created with Inkscape (http://www.inkscape.org/) -->

<svg
   xmlns:dc="http://purl.org/dc/elements/1.1/"
   xmlns:cc="http://creativecommons.org/ns#"
   xmlns:rdf="http://www.w3.org/1999/02/22-rdf-syntax-ns#"
   xmlns:svg="http://www.w3.org/2000/svg"
   xmlns="http://www.w3.org/2000/svg"
   version="1.1"
   width="1000"
   height="1000"
   id="svg3102">
  <defs
     id="defs3104" />
  <metadata
     id="metadata3107">
    <rdf:RDF>
      <cc:Work
         rdf:about="">
        <dc:format>image/svg+xml</dc:format>
        <dc:type
           rdf:resource="http://purl.org/dc/dcmitype/StillImage" />
        <dc:title></dc:title>
      </cc:Work>
    </rdf:RDF>
  </metadata>
  <g
     transform="translate(0,-52.362183)"
     id="layer1">
    <path
       d="m 0.32169,53.058616 0,90.856664 0,408.07172 0,135.50176 0,90.46504 225.96698,0 0,0.39163 0.19424,0 c 124.95235,0 226.16225,-101.4057 226.16225,-226.35843 0,-90.27756 -52.789,-168.34907 -129.2357,-204.62325 1.0351,-1.29665 2.1329,-2.59106 3.133,-3.91626 0.1127,-0.14788 0.2819,-0.24311 0.3884,-0.39162 22.6622,-30.22087 36.1397,-67.65563 36.2256,-108.28391 l -0.7833,0 c 0,-100.12256 -81.02848,-181.216326 -181.12621,-181.321721 l 0,-0.391623 -180.92996,0 z m 180.93027,90.660854 c 49.93984,0.31643 90.26892,41.0382 90.26892,91.05249 0,50.20964 -40.64677,90.85666 -90.85667,90.85666 l 0,0.1955 c -49.76095,-0.52635 -90.0733,-41.16916 -90.0733,-91.05248 l 0,-90.85667 90.66105,0 0,-0.1955 z M 90.59091,391.22552 c 26.49838,15.44251 57.23194,24.49904 90.0733,24.67229 l 0,0.39162 c 0.13159,2.6e-4 0.26318,0 0.38849,0 4.19695,0 8.40706,-0.1109 12.53196,-0.39162 l 32.70087,0 0,0.1955 c 0.19426,-8.1e-4 0.39476,0 0.589,0 72.66153,0 132.05983,57.08657 135.69723,128.84416 0.1191,2.31478 0,4.70537 0,7.04922 0,72.39565 -56.4846,131.6624 -127.86475,135.69756 l 0,-0.19549 -144.11766,0 0,-296.26324 z"
       id="path4029-49"
       style="fill:#000000;fill-opacity:1;stroke:none" />
  </g>
</svg>
