<?xml version="1.0" encoding="UTF-8" standalone="no"?>
<!-- Created with Inkscape (http://www.inkscape.org/) -->

<svg
   xmlns:dc="http://purl.org/dc/elements/1.1/"
   xmlns:cc="http://creativecommons.org/ns#"
   xmlns:rdf="http://www.w3.org/1999/02/22-rdf-syntax-ns#"
   xmlns:svg="http://www.w3.org/2000/svg"
   xmlns="http://www.w3.org/2000/svg"
   version="1.1"
   width="1000"
   height="1000"
   id="svg3102">
  <defs
     id="defs3104" />
  <metadata
     id="metadata3107">
    <rdf:RDF>
      <cc:Work
         rdf:about="">
        <dc:format>image/svg+xml</dc:format>
        <dc:type
           rdf:resource="http://purl.org/dc/dcmitype/StillImage" />
        <dc:title></dc:title>
      </cc:Work>
    </rdf:RDF>
  </metadata>
  <g
     transform="translate(0,-52.362183)"
     id="layer1">
    <path
       d="M 224.28015,52.45763 C 101.67444,53.615767 2.5827693,152.42986 0.3828954,274.78779 l -0.19557224,0 0,276.59048 0.39177124,0 c -6.26e-5,0.0646 0,0.13037 0,0.19557 0,124.99977 101.0522756,226.44378 226.0519956,226.44378 l 0.19556,0 0,-0.19557 c 124.63341,-0.42876 225.26847,-101.70878 225.26847,-226.44378 0,-0.0652 6e-5,-0.13164 0,-0.19557 l -89.9115,0 c -1.8e-4,0.0652 0,0.13163 0,0.19557 0,75.03378 -60.71495,135.94461 -135.74873,135.94461 -0.19558,0 -0.39239,8.2e-4 -0.58734,0 l 0,0.19558 C 150.99881,687.30157 90.490593,626.47373 90.490593,551.57384 c 0,-0.0646 1.88e-4,-0.13038 0,-0.19557 l 0,-276.59048 c 2.142082,-72.56255 60.930897,-130.90756 133.789867,-131.83102 0.19496,-8.1e-4 0.39179,0 0.58735,0 0.58547,0 1.179,-0.006 1.76296,0 74.22341,0.94075 133.98577,61.49661 133.98577,135.94462 0,0.0646 -1.8e-4,0.13039 0,0.19557 l 89.91149,0 c 7e-5,-0.0646 0,-0.13037 0,-0.19557 0,-124.28445 -99.88793,-225.291829 -223.89726,-226.44376 -0.0646,-6.27e-4 -0.13101,5.64e-4 -0.19556,0 -0.66131,0 -1.29885,-0.0057 -1.95886,0 l -0.19557,0 z M -1.5759607,273.02482 c -0.050146,1.97396 -0.1955723,3.89038 -0.1955723,5.87657 0,0.0658 -3.133e-4,0.13039 0,0.19557 l 0.1955723,0 0,-6.07245 z m 454.0628507,0 0,6.07246 0.19558,0 c 3.2e-4,-0.0658 0,-0.13038 0,-0.19558 0,-1.9862 -0.14481,-3.9026 -0.19558,-5.87656 z m -226.63966,52.10557 0,0.19558 c -3.62799,7.9e-4 -7.17768,0.0125 -10.7737,0.19556 l 11.75312,0 0,-0.19556 10.77372,0 c -3.85748,-0.19558 -7.65101,-0.19558 -11.55726,-0.19558 l -0.19556,0 z m -10.96959,179.82298 c 3.1385,0.15922 6.25354,0.19056 9.40251,0.19557 0.72136,0.001 1.42666,0 2.15474,0 0.0658,-1.2e-4 0.13039,1.3e-4 0.19557,0 3.14896,-0.005 6.26402,-0.0376 9.40252,-0.19557 l -9.40252,0 -2.35062,0 -9.40251,0 z M -0.20476164,551.18238 c -3.133e-4,0.0658 0,0.13038 0,0.19558 0,1.98618 0.1447987,3.9026 0.1955723,5.87656 l 0,-6.07245 -0.1955723,0 z m 452.88755164,0.19558 0,6.07245 c 0.0501,-1.97396 0.19556,-3.89038 0.19556,-5.87657 0,-0.0658 3.2e-4,-0.13038 0,-0.19557 l -0.19556,0 z"
       id="path4194"
       style="fill:#000000;fill-opacity:1;stroke:none" />
  </g>
</svg>
